<svg xmlns="http://www.w3.org/2000/svg" width="20" height="13" viewBox="0 0 20 13">
    <g fill="#38495B" fill-rule="nonzero">
        <path d="M9.99 0A10.974 10.974 0 0 0 .04 6.31a.424.424 0 0 0 0 .36 10.974 10.974 0 0 0 9.95 6.31c4.408 0 8.207-2.582 9.952-6.31a.424.424 0 0 0 0-.36A10.974 10.974 0 0 0 9.99 0zm0 10.969c-2.488 0-4.503-2.005-4.503-4.478 0-2.474 2.017-4.477 4.504-4.477 2.489 0 4.504 2.005 4.504 4.477 0 2.473-2.018 4.478-4.504 4.478z"/>
        <ellipse cx="9.991" cy="6.489" rx="2.883" ry="2.866"/>
    </g>
</svg>
