<svg xmlns="http://www.w3.org/2000/svg" width="24" height="33" viewBox="0 0 24 33"><path fill="#fff" d="M21.983 27.712c-1.192 1.563-2.027 2.969-4.291 2.969-1.789 0-2.386-.858-5.128-2.578.715-1.406 1.313-3.203 1.313-5.233 0-.548 0-1.095-.121-1.642l4.531.078-.955-2.188h-3.933c-.238-.782-.478-1.484-.716-2.188h3.815l-.834-2.188h-3.814c-1.192-2.5-2.504-4.922-2.504-7.266 0-2.813 1.787-5.313 5.246-5.313 3.219 0 4.888 2.109 5.364 3.047l1.908-1.016c-.716-1.875-3.815-4.297-7.154-4.297-5.126.078-8.583 4.14-8.583 8.672 0 2.109.596 4.063 1.549 6.172h-4.53l.953 2.188h4.293l1.073 2.188h-4.531l.954 2.188 4.292-.078c.479 1.25.716 2.422.716 3.517 0 .702-.12 1.874-.357 2.265-.358-.156-1.312-.547-1.789-.781-1.192-.546-2.384-.781-3.457-.781-2.624-.001-4.293 1.562-4.293 3.827 0 2.344 2.146 3.75 4.649 3.829 2.147 0 3.815-.86 5.603-2.813 3.219 2.344 4.293 2.891 6.44 2.891 3.099 0 4.647-1.798 5.244-3.282l-.953-2.187zm-16.334 3.517c-1.312 0-2.503-.703-2.503-1.954 0-1.172 1.073-1.875 2.265-1.875 1.312 0 2.744.625 4.292 1.641-1.192 1.25-2.504 2.188-4.054 2.188z"/></svg>